<?xml version="1.0" encoding="utf-8"?>
<!-- Generator: Adobe Illustrator 23.0.3, SVG Export Plug-In . SVG Version: 6.00 Build 0)  -->
<svg version="1.1" id="Layer_1" xmlns="http://www.w3.org/2000/svg" xmlns:xlink="http://www.w3.org/1999/xlink" x="0px" y="0px"
	 viewBox="0 0 100 100" style="enable-background:new 0 0 100 100;" xml:space="preserve">
<g>
	<circle cx="49" cy="49.9997559" r="9.5135946"/>
	<path d="M71.2496719,33.1672745c-0.5179291-1.3320637-1.1365509-2.2826653-2.13517-3.2812843
		c-0.9986191-0.9991093-1.9494705-1.6174908-3.2817764-2.1349297c-1.005722-0.3912659-2.5171318-0.8557854-5.2995949-0.9829407
		C57.5235481,26.6306744,56.6209717,26.6017647,49,26.6017647c-7.6204796,0-8.523304,0.0289097-11.5328865,0.1663551
		c-2.7824631,0.1271553-4.2933769,0.5916748-5.2993469,0.9829407c-1.3323116,0.5174389-2.2831573,1.1358204-3.2817764,2.1349297
		c-0.998621,0.9986191-1.6174908,1.9492207-2.1349297,3.2812843c-0.3910198,1.0057259-0.8560314,2.5171318-0.9829407,5.300087
		c-0.1371994,3.0090904-0.1663551,3.9119148-0.1663551,11.5323944c0,7.6209679,0.0291557,8.5237923,0.1663551,11.5333748
		c0.1269093,2.7824669,0.5919209,4.2938728,0.9829407,5.2995949c0.5174389,1.3320618,1.1363087,2.2826614,2.1349297,3.2815323
		c0.9986191,0.9986191,1.9494648,1.6172409,3.2817764,2.1346817c1.00597,0.3910217,2.5168839,0.8557892,5.2993469,0.9829407
		C40.4762039,73.3690796,41.3787842,73.3984833,49,73.3984833c7.6217041,0,8.5237961-0.0294037,11.5331306-0.1666031
		c2.7824631-0.1271515,4.2938728-0.5919189,5.2995949-0.9829407c1.3323059-0.5174408,2.2831573-1.1360626,3.2817764-2.1346817
		c0.9986191-0.9988708,1.6172409-1.9494705,2.13517-3.2815323c0.3907776-1.005722,0.8557892-2.517128,0.9824524-5.299839
		c0.1374435-3.0093384,0.1666031-3.9121628,0.1666031-11.5331306c0-7.6204796-0.0291595-8.523304-0.1666031-11.5328865
		C72.1054611,35.6844063,71.6404495,34.1730003,71.2496719,33.1672745z M49,64.655899
		c-8.0943108,0-14.6556549-6.5615883-14.6556549-14.6561432c0-8.0940666,6.5613441-14.655899,14.6556549-14.655899
		c8.0945549,0,14.6563911,6.5618324,14.6563911,14.655899C63.6563911,58.0943108,57.0945549,64.655899,49,64.655899z
		 M64.2353287,38.1897736c-1.8916473,0-3.4248581-1.5332069-3.4248581-3.4250984
		c0-1.8913994,1.5332108-3.4248543,3.4248581-3.4248543c1.8918839,0,3.4248505,1.5334549,3.4248505,3.4248543
		C67.6601791,36.6565666,66.1272125,38.1897736,64.2353287,38.1897736z"/>
	<path d="M49,1C21.9380341,1,0,22.9377899,0,49.9997559C0,77.0622101,21.9380341,99,49,99s49-21.9377899,49-49.0002441
		C98,22.9377899,76.0619659,1,49,1z M77.3692856,61.7671051c-0.1386719,3.0382462-0.6210785,5.1124115-1.3264313,6.9281082
		c-0.7296066,1.8769455-1.7054443,3.4684677-3.2920609,5.0550842c-1.5866241,1.5868683-3.1783905,2.5629501-5.0550919,3.2918243
		c-1.8154449,0.7058411-3.8903503,1.1882477-6.9281082,1.3266754C57.7234688,78.5077133,56.7513084,78.5405426,49,78.5405426
		c-7.7508202,0-8.7232246-0.0328293-11.7671051-0.1717453c-3.0379982-0.1384277-5.1124153-0.6208344-6.9281101-1.3266754
		c-1.8766994-0.7288742-3.4682198-1.7049561-5.0553303-3.2918243c-1.5866203-1.5866165-2.5627003-3.1781387-3.2918186-5.0550842
		c-0.7051105-1.8156967-1.1880054-3.8898621-1.3266754-6.9281082c-0.138916-3.0438805-0.1715012-4.0157967-0.1715012-11.7673492
		c0-7.7510643,0.0325851-8.7227364,0.1715012-11.766861c0.13867-3.0379982,0.6215649-5.1124153,1.3266754-6.9283543
		c0.7291183-1.8767014,1.7051983-3.4679756,3.2918186-5.0548401c1.5871105-1.5868664,3.1786308-2.5627003,5.0553303-3.2923107
		c1.8156948-0.7053547,3.8901119-1.1877594,6.9281101-1.3261852C40.2767754,21.4922905,41.2491798,21.4589691,49,21.4589691
		c7.7513084,0,8.7234688,0.0333214,11.7675934,0.1722355c3.0377579,0.1384258,5.1126633,0.6208305,6.9281082,1.3261852
		c1.8767014,0.7296104,3.4684677,1.7054443,5.0550919,3.2923107c1.5866165,1.5868645,2.5624542,3.1781387,3.2920609,5.0548401
		c0.7053528,1.8159389,1.1877594,3.8903561,1.3264313,6.9283543c0.1391602,3.0441246,0.1717453,4.0157967,0.1717453,11.766861
		C77.5410309,57.7513084,77.5084457,58.7232246,77.3692856,61.7671051z"/>
</g>
</svg>
