<?xml version="1.0" encoding="utf-8"?>
<!-- Generator: Adobe Illustrator 23.0.3, SVG Export Plug-In . SVG Version: 6.00 Build 0)  -->
<svg version="1.1" id="Layer_1" xmlns="http://www.w3.org/2000/svg" xmlns:xlink="http://www.w3.org/1999/xlink" x="0px" y="0px"
	 viewBox="0 0 100 100" style="enable-background:new 0 0 100 100;" xml:space="preserve">
<g>
	<polygon points="70.8703232,62.4731941 70.8703232,37.7742538 58.7063217,50.017395 	"/>
	<path d="M50.0730095,52.9380417h0.0009804c0.6107864,0,1.1681595-0.2094765,1.5290451-0.5730553l17.1669083-17.2781372H31.4878006
		l17.0414658,17.2678452C48.8945618,52.7234192,49.4585495,52.9363251,50.0730095,52.9380417z"/>
	<path d="M54.0045242,54.750061c-0.991024,0.9986191-2.4240303,1.5716743-3.9305344,1.5716743h-0.0017166
		c-1.5101776,0-2.9500427-0.5782013-3.9486618-1.5871086l-2.3537178-2.3845863L31.4797153,64.913147h37.0432663
		L56.3209991,52.418396L54.0045242,54.750061z"/>
	<polygon points="29.1296749,37.5165138 29.1296749,62.4741745 41.3916817,49.940464 	"/>
	<path d="M50,1C22.9385242,1,1,22.9375458,1,50s21.9385242,49,49,49s49-21.9375458,49-49S77.0614777,1,50,1z M74.2537766,68.2988052
		H25.7459793V31.7014408h48.5077972V68.2988052z"/>
</g>
</svg>
